<svg
  aria-hidden="true"
  fill="none"
  height="52"
  role="img"
  viewBox="0 0 56 56"
  width="52"
  xmlns="http://www.w3.org/2000/svg"
>
  <rect fill="#FFE6E6" height="6.75" width="19.6875" x="17.9375" y="16.875" />
  <rect
    fill="#FFE6E6"
    height="6.75"
    width="19.6875"
    x="17.9375"
    y="27.5625"
  />
  <circle cx="28.0625" cy="25.875" fill="#EBFCFF" r="15.75" />
  <path
    d="M18.3254 4.131L23.0901 8.88255M1.625 25.3125H26.375M20.3529 2.10908L8.44118 13.988L7.25 19.9274L13.2059 18.7395L25.1176 6.86063C26.4334 5.54853 26.4334 3.42119 25.1176 2.10908C23.8019 0.796974 21.6687 0.796973 20.3529 2.10908Z"
    stroke="#23262A"
    stroke-linecap="round"
    stroke-linejoin="round"
    stroke-width="2"
  />
  <path
    d="M42.6875 33.1875L48.3125 33.1875"
    stroke="#262626"
    stroke-linecap="round"
    stroke-linejoin="round"
    stroke-width="2"
  />
  <path
    d="M42.6875 39.375L48.3125 39.375"
    stroke="#262626"
    stroke-linecap="round"
    stroke-linejoin="round"
    stroke-width="2"
  />
  <path
    d="M42.6875 45.5625L48.3125 45.5625"
    stroke="#262626"
    stroke-linecap="round"
    stroke-linejoin="round"
    stroke-width="2"
  />
  <path
    d="M36.5 39.375L38.75 39.375"
    stroke="#262626"
    stroke-linecap="round"
    stroke-linejoin="round"
    stroke-width="2"
  />
  <path
    d="M36.5 39.375L38.75 39.375"
    stroke="#262626"
    stroke-linecap="round"
    stroke-linejoin="round"
    stroke-width="2"
  />
  <path
    d="M36.5 33.1875L38.75 33.1875"
    stroke="#262626"
    stroke-linecap="round"
    stroke-linejoin="round"
    stroke-width="2"
  />
  <path
    d="M36.5 33.1875L38.75 33.1875"
    stroke="#262626"
    stroke-linecap="round"
    stroke-linejoin="round"
    stroke-width="2"
  />
  <path
    d="M36.5 45.5625L38.75 45.5625"
    stroke="#262626"
    stroke-linecap="round"
    stroke-linejoin="round"
    stroke-width="2"
  />
  <path
    d="M36.5 45.5625L38.75 45.5625"
    stroke="#262626"
    stroke-linecap="round"
    stroke-linejoin="round"
    stroke-width="2"
  />
  <rect
    height="28.125"
    stroke="#262626"
    stroke-linecap="round"
    stroke-linejoin="round"
    stroke-width="2"
    width="21.9375"
    x="31.4375"
    y="24.75"
  />
</svg>